# xmcd CD database file
#
# Track frame offsets:
#	150
#	17972
#	35922
#	53697
#
# Disc length: 953 seconds
#
# Revision: 0
# Processed by: cddbd v1.5.1PL2 Copyright (c) Steve Scherf et al.
# Submitted via: CD2WAV32(JP) R3.22
#
DISCID=3003b704
DTITLE=ミヤギマモル - 球美伝説 ～美しき島～
DYEAR=2000
DGENRE=Folk
TTITLE0=球美伝説 ～美しき島～
TTITLE1=ほたる ～クメジマボタル～
TTITLE2=球美伝説 (カラオケ)
TTITLE3=ほたる (カラオケ)
EXTD=
EXTT0=
EXTT1=
EXTT2=
EXTT3=
PLAYORDER=
